# xmcd CD database file
#
# Track frame offsets:
#	150
#	11801
#	26066
#	44387
#	55543
#	72144
#	86963
#	99941
#	119091
#	133567
#	147234
#	166624
#
# Disc length: 2756 seconds
#
# Revision: 0
# Processed by: cddbd v1.5.2PL0 Copyright (c) Steve Scherf et al.
# Submitted via: ACXtractor (MTCDDB.DLL V2003.12.21)
#
DISCID=9f0ac20c
DTITLE=Daniel Thompson - The Richest Man ib Town
DYEAR=2000
DGENRE=Country
TTITLE0=I Forget You Every Day
TTITLE1=It's a Crazy World
TTITLE2=Where we go From Here
TTITLE3=In a Mansion Stands My Love
TTITLE4=Country Boy
TTITLE5=Devil May Care
TTITLE6=Back in the Swing of Things
TTITLE7=Home is Where the Heart Aches
TTITLE8=We're Both to Blame
TTITLE9=Fools Fall in Love
TTITLE10=The Richest Man in town
TTITLE11=Leaving or Being Left Behind
EXTD=ID3G:   2 YEAR: 2000
EXTT0=
EXTT1=
EXTT2=
EXTT3=
EXTT4=
EXTT5=
EXTT6=
EXTT7=
EXTT8=
EXTT9=
EXTT10=
EXTT11=
PLAYORDER=
